<?xml version="1.0" standalone="no"?>
<!DOCTYPE svg PUBLIC "-//W3C//DTD SVG 20010904//EN"
 "http://www.w3.org/TR/2001/REC-SVG-20010904/DTD/svg10.dtd">
<svg version="1.0" xmlns="http://www.w3.org/2000/svg" viewBox="0 0 500.000000 500.000000"
 preserveAspectRatio="xMidYMid meet">
<metadata>
Created by potrace 1.10, written by Peter Selinger 2001-2011
</metadata>
<g transform="translate(0.000000,500.000000) scale(0.100000,-0.100000)"
fill="#000000" stroke="none">
<path d="M1279 2996 c-41 -15 -105 -60 -113 -82 -4 -11 5 -14 42 -14 98 0 162
-62 162 -157 0 -76 -29 -130 -83 -153 -33 -13 -62 -17 -132 -14 l-90 3 -5 73
-5 73 -42 -71 c-47 -78 -53 -114 -23 -144 19 -19 33 -20 475 -20 l455 0 0 164
0 163 95 7 c112 8 143 -3 170 -60 17 -36 18 -37 32 -18 8 10 26 40 39 67 24
46 44 61 44 32 0 -12 16 -15 80 -15 l80 0 -80 -97 c-58 -70 -80 -105 -80 -125
l0 -28 130 0 130 0 0 30 0 30 -80 0 c-44 0 -80 3 -80 6 0 3 36 49 80 102 49
59 80 105 80 119 0 23 -1 23 -124 23 l-124 0 5 38 c4 34 1 42 -22 60 -28 22
-31 22 -504 22 -361 -1 -485 -4 -512 -14z m499 -68 c30 -30 -4 -77 -41 -57
-29 17 -15 69 18 69 6 0 16 -5 23 -12z m-272 -111 c3 -3 17 -1 29 5 36 16 55
4 55 -37 0 -30 -3 -35 -24 -35 -36 0 -51 -26 -56 -103 l-5 -70 -43 -1 -42 -1
0 125 0 125 40 -1 c22 -1 43 -4 46 -7z m340 -30 c81 -88 17 -217 -107 -217
-77 0 -129 54 -129 135 0 84 51 127 144 122 53 -3 62 -7 92 -40z"/>
<path d="M1706 2735 c-18 -49 4 -89 45 -83 32 4 45 31 33 65 -7 21 -17 29 -40
31 -22 2 -33 -2 -38 -13z"/>
<path d="M1166 2823 c-3 -4 -6 -44 -6 -90 l0 -83 34 0 c53 0 81 29 81 84 0 32
-6 51 -20 64 -21 20 -78 36 -89 25z"/>
<path d="M2700 2814 c-62 -22 -90 -58 -90 -114 0 -49 25 -86 70 -104 50 -20
60 -20 108 -1 82 33 98 152 26 200 -25 16 -91 27 -114 19z m74 -70 c19 -19 21
-64 3 -88 -8 -11 -26 -18 -42 -18 -33 0 -55 25 -55 63 0 34 24 59 55 59 13 0
31 -7 39 -16z"/>
<path d="M2930 2700 l0 -120 35 0 35 0 0 73 c0 59 4 77 18 90 24 22 38 21 62
-3 16 -16 20 -33 20 -90 l0 -70 36 0 36 0 -4 89 c-3 60 -9 97 -21 114 -22 33
-68 43 -108 23 -39 -20 -39 -20 -39 -1 0 10 -11 15 -35 15 l-35 0 0 -120z"/>
<path d="M3304 2813 c-12 -2 -34 -18 -50 -34 -24 -25 -29 -39 -29 -79 0 -55
20 -84 74 -107 38 -16 95 -10 126 13 17 13 18 16 3 30 -14 14 -21 14 -52 3
-33 -12 -37 -11 -60 11 -14 12 -23 27 -20 31 3 5 42 9 86 9 l81 0 -6 36 c-7
44 -23 63 -64 81 -32 13 -49 14 -89 6z m74 -55 c26 -26 13 -38 -38 -38 -54 0
-59 4 -33 32 18 21 53 24 71 6z"/>
<path d="M2032 2738 c-17 -17 -15 -63 3 -78 38 -32 90 24 65 70 -12 22 -49 27
-68 8z"/>
<path d="M2020 2549 c0 -22 4 -39 8 -39 4 0 23 12 41 28 l33 27 -41 11 -41 11
0 -38z"/>
</g>
</svg>
